<svg width="204" height="287" viewBox="0 0 204 287" fill="none" xmlns="http://www.w3.org/2000/svg">
<path d="M159.216 10.606H142.372L159.892 29.6281V38.6747H123.797V28.0802H141.317L123.797 9.05812V0H159.227L159.216 10.606ZM116.631 10.606H99.7645L117.307 29.6281V38.6747H81.2011V28.0802H98.7211L81.2011 9.05812V0H116.631V10.606ZM74.4591 11.0417H56.2856V27.6445H74.4591V38.6862H43.3519V0H74.4591V11.0417Z" fill="white"/>
<path fill-rule="evenodd" clip-rule="evenodd" d="M18.572 263.615L0.0888672 56.3447H203.151L184.645 263.581L101.494 286.627L18.572 263.615ZM101.625 148.377H135.25L137.566 122.349H101.717V122.361H40.3279L39.8004 116.651L38.6424 103.763L38.0347 96.9408H101.609H101.717H165.36L164.752 103.763L158.603 172.7H158.613L154.188 222.118L153.809 226.418L101.823 240.83V240.892H101.674L49.5957 226.399L46.0298 186.486H71.5301L73.3417 206.758L101.651 214.406H101.696V214.379L130.052 206.731L133.013 173.82H101.609V173.797H73.6365L73.1435 168.087L71.9854 155.199L71.3777 148.377H101.609H101.614H101.625Z" fill="white"/>
</svg>
